ffmpeg started on 2016-12-07 at 02:33:36
Report written to "Output/x264/results/ffmpeg/sintelmedium14000k.log"
Command line:
Tools/ffmpeg/ffmpeg -benchmark -y -i Input/y4m/sintel.y4m -c:v libx264 -preset medium -b:v 14000k -an Output/x264/encoded/sintelmedium14000k.mkv
ffmpeg version N-82227-gdb23fde Copyright (c) 2000-2016 the FFmpeg developers
  built with gcc 5.4.0 (Ubuntu 5.4.0-6ubuntu1~16.04.2) 20160609
  configuration: --prefix=/home/jaroslav/ffmpeg_build --pkg-config-flags=--static --extra-cflags=-I/home/jaroslav/ffmpeg_build/include --extra-ldflags=-L/home/jaroslav/ffmpeg_build/lib --bindir=/home/jaroslav/bin --enable-gpl --enable-libass --enable-libfdk-aac --enable-libfreetype --enable-libmp3lame --enable-libopus --enable-libtheora --enable-libvorbis --enable-libvpx --enable-libx264 --enable-libx265 --enable-nvenc --enable-libmfx --enable-libxvid --enable-libgsm --enable-libopencore-amrnb --enable-version3 --enable-nonfree
  libavutil      55. 35.100 / 55. 35.100
  libavcodec     57. 66.101 / 57. 66.101
  libavformat    57. 57.100 / 57. 57.100
  libavdevice    57.  2.100 / 57.  2.100
  libavfilter     6. 66.100 /  6. 66.100
  libswscale      4.  3.100 /  4.  3.100
  libswresample   2.  4.100 /  2.  4.100
  libpostproc    54.  2.100 / 54.  2.100
Input #0, yuv4mpegpipe, from 'Input/y4m/sintel.y4m':
  Duration: 00:00:20.83, start: 0.000000, bitrate: 2057307 kb/s
    Stream #0:0: Video: rawvideo (I420 / 0x30323449), yuv420p(progressive), 4096x1744, SAR 1:1 DAR 256:109, 24 fps, 24 tbr, 24 tbn, 24 tbc
[libx264 @ 0x34961c0] using SAR=1/1
[libx264 @ 0x34961c0] using cpu capabilities: MMX2 SSE2Fast SSSE3 SSE4.2 AVX FMA3 AVX2 LZCNT BMI2
[libx264 @ 0x34961c0] profile High, level 5.1
[libx264 @ 0x34961c0] 264 - core 148 - H.264/MPEG-4 AVC codec - Copyleft 2003-2016 - http://www.videolan.org/x264.html - options: cabac=1 ref=3 deblock=1:0:0 analyse=0x3:0x113 me=hex subme=7 psy=1 psy_rd=1.00:0.00 mixed_ref=1 me_range=16 chroma_me=1 trellis=1 8x8dct=1 cqm=0 deadzone=21,11 fast_pskip=1 chroma_qp_offset=-2 threads=6 lookahead_threads=1 sliced_threads=0 nr=0 decimate=1 interlaced=0 bluray_compat=0 constrained_intra=0 bframes=3 b_pyramid=2 b_adapt=1 b_bias=0 direct=1 weightb=1 open_gop=0 weightp=2 keyint=250 keyint_min=24 scenecut=40 intra_refresh=0 rc_lookahead=40 rc=abr mbtree=1 bitrate=14000 ratetol=1.0 qcomp=0.60 qpmin=0 qpmax=69 qpstep=4 ip_ratio=1.40 aq=1:1.00
Output #0, matroska, to 'Output/x264/encoded/sintelmedium14000k.mkv':
  Metadata:
    encoder         : Lavf57.57.100
    Stream #0:0: Video: h264 (libx264) (H264 / 0x34363248), yuv420p, 4096x1744 [SAR 1:1 DAR 256:109], q=-1--1, 14000 kb/s, 24 fps, 1k tbn, 24 tbc
    Metadata:
      encoder         : Lavc57.66.101 libx264
    Side data:
      cpb: bitrate max/min/avg: 0/0/14000000 buffer size: 0 vbv_delay: -1
Stream mapping:
  Stream #0:0 -> #0:0 (rawvideo (native) -> h264 (libx264))
Press [q] to stop, [?] for help
frame=    9 fps=0.0 q=0.0 size=       0kB time=00:00:00.00 bitrate=N/A speed=   0x    frame=   18 fps= 17 q=0.0 size=       0kB time=00:00:00.00 bitrate=N/A speed=   0x    frame=   27 fps= 17 q=0.0 size=       0kB time=00:00:00.00 bitrate=N/A speed=   0x    frame=   34 fps= 15 q=0.0 size=       0kB time=00:00:00.00 bitrate=N/A speed=   0x    frame=   43 fps= 15 q=0.0 size=       0kB time=00:00:00.00 bitrate=N/A speed=   0x    frame=   47 fps=9.0 q=0.0 size=       0kB time=00:00:00.00 bitrate=N/A speed=   0x    frame=   48 fps=5.8 q=0.0 size=       0kB time=00:00:00.00 bitrate=N/A speed=   0x    frame=   49 fps=4.3 q=0.0 size=       0kB time=00:00:00.00 bitrate=N/A speed=   0x    frame=   52 fps=4.3 q=22.0 size=       1kB time=-00:00:00.04 bitrate=N/A speed=N/A    frame=   55 fps=4.1 q=26.0 size=       1kB time=00:00:00.08 bitrate=  69.9kbits/s speed=0.0063x    frame=   60 fps=4.3 q=40.0 size=       1kB time=00:00:00.29 bitrate=  20.0kbits/s speed=0.0212x    frame=   61 fps=4.2 q=40.0 size=       1kB time=00:00:00.33 bitrate=  17.6kbits/s speed=0.0231x    frame=   67 fps=4.5 q=39.0 size=       1kB time=00:00:00.58 bitrate=  10.1kbits/s speed=0.0389x    frame=   69 fps=4.4 q=39.0 size=       1kB time=00:00:00.66 bitrate=   8.8kbits/s speed=0.043x    frame=   74 fps=4.6 q=38.0 size=       1kB time=00:00:00.87 bitrate=   6.7kbits/s speed=0.0542x    frame=   79 fps=4.7 q=38.0 size=       1kB time=00:00:01.08 bitrate=   5.4kbits/s speed=0.0646x    frame=   82 fps=4.7 q=37.0 size=       1kB time=00:00:01.20 bitrate=   4.9kbits/s speed=0.0698x    frame=   87 fps=4.8 q=37.0 size=       1kB time=00:00:01.41 bitrate=   4.1kbits/s speed=0.0788x    frame=   91 fps=4.9 q=37.0 size=       1kB time=00:00:01.58 bitrate=   3.7kbits/s speed=0.0855x    frame=   95 fps=5.0 q=36.0 size=       1kB time=00:00:01.75 bitrate=   3.4kbits/s speed=0.0918x    frame=  100 fps=5.1 q=36.0 size=       1kB time=00:00:01.95 bitrate=   3.0kbits/s speed=0.099x    frame=  104 fps=5.1 q=35.0 size=    5150kB time=00:00:02.12 bitrate=19845.9kbits/s speed=0.104x    frame=  107 fps=5.1 q=35.0 size=    5150kB time=00:00:02.25 bitrate=18743.9kbits/s speed=0.108x    frame=  111 fps=5.1 q=35.0 size=    5150kB time=00:00:02.41 bitrate=17449.3kbits/s speed=0.112x    frame=  116 fps=5.2 q=35.0 size=    5150kB time=00:00:02.62 bitrate=16067.2kbits/s speed=0.118x    frame=  119 fps=5.2 q=35.0 size=    5150kB time=00:00:02.75 bitrate=15337.1kbits/s speed=0.12x    frame=  123 fps=5.2 q=35.0 size=    5150kB time=00:00:02.91 bitrate=14459.4kbits/s speed=0.124x    frame=  126 fps=5.2 q=34.0 size=    5150kB time=00:00:03.04 bitrate=13865.4kbits/s speed=0.126x    frame=  130 fps=5.3 q=34.0 size=    5150kB time=00:00:03.20 bitrate=13148.2kbits/s speed=0.13x    frame=  134 fps=5.3 q=34.0 size=    5150kB time=00:00:03.37 bitrate=12497.8kbits/s speed=0.133x    frame=  139 fps=5.3 q=34.0 size=    5150kB time=00:00:03.58 bitrate=11772.4kbits/s speed=0.137x    frame=  143 fps=5.3 q=34.0 size=    5150kB time=00:00:03.75 bitrate=11248.3kbits/s speed=0.14x    frame=  148 fps=5.4 q=33.0 size=    7366kB time=00:00:03.95 bitrate=15242.0kbits/s speed=0.145x    frame=  152 fps=5.4 q=33.0 size=    7366kB time=00:00:04.12 bitrate=14625.1kbits/s speed=0.147x    frame=  156 fps=5.5 q=33.0 size=    7366kB time=00:00:04.29 bitrate=14056.2kbits/s speed=0.151x    frame=  160 fps=5.5 q=33.0 size=    7366kB time=00:00:04.45 bitrate=13532.9kbits/s speed=0.153x    frame=  163 fps=5.5 q=33.0 size=    7366kB time=00:00:04.58 bitrate=13163.8kbits/s speed=0.155x    frame=  169 fps=5.6 q=33.0 size=    7366kB time=00:00:04.83 bitrate=12483.1kbits/s speed=0.16x    frame=  171 fps=5.6 q=33.0 size=    7366kB time=00:00:04.91 bitrate=12269.8kbits/s speed=0.16x    frame=  176 fps=5.6 q=33.0 size=    7366kB time=00:00:05.12 bitrate=11772.0kbits/s speed=0.164x    frame=  179 fps=5.6 q=33.0 size=    7366kB time=00:00:05.25 bitrate=11491.7kbits/s speed=0.164x    frame=  183 fps=5.6 q=32.0 size=    7366kB time=00:00:05.41 bitrate=11137.5kbits/s speed=0.166x    frame=  187 fps=5.6 q=32.0 size=    7366kB time=00:00:05.58 bitrate=10806.4kbits/s speed=0.168x    frame=  191 fps=5.7 q=32.0 size=    7366kB time=00:00:05.75 bitrate=10492.6kbits/s speed=0.171x    frame=  195 fps=5.7 q=32.0 size=    7366kB time=00:00:05.91 bitrate=10196.5kbits/s speed=0.173x    frame=  199 fps=5.7 q=32.0 size=    7366kB time=00:00:06.08 bitrate=9918.3kbits/s speed=0.175x    frame=  202 fps=5.7 q=30.0 size=    7366kB time=00:00:06.20 bitrate=9718.6kbits/s speed=0.176x    frame=  209 fps=5.8 q=32.0 size=   10945kB time=00:00:06.50 bitrate=13791.8kbits/s speed=0.182x    frame=  212 fps=5.8 q=32.0 size=   10945kB time=00:00:06.62 bitrate=13531.7kbits/s speed=0.182x    frame=  216 fps=5.8 q=32.0 size=   10945kB time=00:00:06.79 bitrate=13199.0kbits/s speed=0.183x    frame=  221 fps=5.9 q=32.0 size=   10945kB time=00:00:07.00 bitrate=12806.9kbits/s speed=0.186x    frame=  224 fps=5.9 q=32.0 size=   10945kB time=00:00:07.12 bitrate=12582.2kbits/s speed=0.187x    frame=  227 fps=5.9 q=31.0 size=   10945kB time=00:00:07.25 bitrate=12365.3kbits/s speed=0.187x    frame=  231 fps=5.9 q=32.0 size=   10945kB time=00:00:07.41 bitrate=12086.9kbits/s speed=0.189x    frame=  239 fps=6.0 q=31.0 size=   12507kB time=00:00:07.75 bitrate=13218.5kbits/s speed=0.194x    frame=  241 fps=6.0 q=31.0 size=   12507kB time=00:00:07.83 bitrate=13078.4kbits/s speed=0.194x    frame=  246 fps=6.0 q=31.0 size=   12507kB time=00:00:08.04 bitrate=12738.6kbits/s speed=0.196x    frame=  249 fps=6.0 q=31.0 size=   12507kB time=00:00:08.16 bitrate=12543.6kbits/s speed=0.196x    frame=  253 fps=6.0 q=31.0 size=   12507kB time=00:00:08.33 bitrate=12293.8kbits/s speed=0.198x    frame=  257 fps=6.0 q=31.0 size=   12507kB time=00:00:08.50 bitrate=12052.3kbits/s speed=0.199x    frame=  261 fps=6.0 q=31.0 size=   12507kB time=00:00:08.66 bitrate=11820.1kbits/s speed=0.201x    frame=  266 fps=6.0 q=31.0 size=   12507kB time=00:00:08.87 bitrate=11543.1kbits/s speed=0.201x    frame=  272 fps=6.1 q=31.0 size=   12507kB time=00:00:09.12 bitrate=11226.9kbits/s speed=0.204x    frame=  278 fps=6.1 q=31.0 size=   12507kB time=00:00:09.37 bitrate=10927.5kbits/s speed=0.207x    frame=  282 fps=6.1 q=31.0 size=   12507kB time=00:00:09.54 bitrate=10736.3kbits/s speed=0.208x    frame=  284 fps=6.1 q=31.0 size=   12507kB time=00:00:09.62 bitrate=10643.7kbits/s speed=0.207x    frame=  291 fps=6.1 q=30.0 size=   12507kB time=00:00:09.91 bitrate=10330.3kbits/s speed=0.209x    frame=  297 fps=6.2 q=30.0 size=   12507kB time=00:00:10.16 bitrate=10076.3kbits/s speed=0.212x    frame=  302 fps=6.2 q=30.0 size=   12507kB time=00:00:10.37 bitrate=9874.4kbits/s speed=0.214x    frame=  307 fps=6.2 q=30.0 size=   12507kB time=00:00:10.58 bitrate=9680.3kbits/s speed=0.215x    frame=  308 fps=6.1 q=30.0 size=   12507kB time=00:00:10.62 bitrate=9642.0kbits/s speed=0.212x    frame=  314 fps=6.2 q=30.0 size=   12507kB time=00:00:10.87 bitrate=9420.4kbits/s speed=0.215x    frame=  322 fps=6.3 q=30.0 size=   17236kB time=00:00:11.20 bitrate=12596.9kbits/s speed=0.218x    frame=  327 fps=6.3 q=30.0 size=   17236kB time=00:00:11.41 bitrate=12366.3kbits/s speed=0.22x    frame=  331 fps=6.3 q=30.0 size=   17236kB time=00:00:11.58 bitrate=12189.1kbits/s speed=0.221x    frame=  337 fps=6.4 q=29.0 size=   17236kB time=00:00:11.83 bitrate=11931.6kbits/s speed=0.223x    frame=  340 fps=6.4 q=29.0 size=   17236kB time=00:00:11.95 bitrate=11806.9kbits/s speed=0.224x    frame=  346 fps=6.4 q=29.0 size=   17236kB time=00:00:12.20 bitrate=11565.1kbits/s speed=0.226x    frame=  354 fps=6.5 q=29.0 size=   17236kB time=00:00:12.54 bitrate=11257.2kbits/s speed=0.229x    frame=  362 fps=6.5 q=29.0 size=   17236kB time=00:00:12.87 bitrate=10966.0kbits/s speed=0.232x    frame=  369 fps=6.6 q=28.0 size=   17236kB time=00:00:13.16 bitrate=10722.9kbits/s speed=0.235x    frame=  374 fps=6.6 q=28.0 size=   17236kB time=00:00:13.37 bitrate=10556.1kbits/s speed=0.236x    frame=  380 fps=6.6 q=28.0 size=   17236kB time=00:00:13.62 bitrate=10362.4kbits/s speed=0.238x    frame=  386 fps=6.7 q=28.0 size=   17236kB time=00:00:13.87 bitrate=10175.7kbits/s speed=0.239x    frame=  394 fps=6.7 q=28.0 size=   17236kB time=00:00:14.20 bitrate=9937.3kbits/s speed=0.242x    frame=  399 fps=6.7 q=27.0 size=   17236kB time=00:00:14.41 bitrate=9793.2kbits/s speed=0.244x    frame=  406 fps=6.8 q=27.0 size=   17236kB time=00:00:14.70 bitrate=9599.5kbits/s speed=0.246x    frame=  413 fps=6.8 q=27.0 size=   21843kB time=00:00:15.00 bitrate=11928.6kbits/s speed=0.248x    frame=  418 fps=6.8 q=27.0 size=   21843kB time=00:00:15.20 bitrate=11765.5kbits/s speed=0.248x    frame=  425 fps=6.9 q=27.0 size=   21843kB time=00:00:15.50 bitrate=11543.8kbits/s speed=0.251x    frame=  426 fps=6.8 q=27.0 size=   21843kB time=00:00:15.54 bitrate=11512.6kbits/s speed=0.249x    frame=  433 fps=6.9 q=27.0 size=   21843kB time=00:00:15.83 bitrate=11301.1kbits/s speed=0.252x    frame=  437 fps=6.9 q=27.0 size=   21843kB time=00:00:16.00 bitrate=11183.1kbits/s speed=0.253x    frame=  439 fps=6.9 q=26.0 size=   21843kB time=00:00:16.08 bitrate=11125.4kbits/s speed=0.252x    frame=  444 fps=6.9 q=27.0 size=   21843kB time=00:00:16.29 bitrate=10982.7kbits/s speed=0.253x    frame=  446 fps=6.9 q=27.0 size=   21843kB time=00:00:16.37 bitrate=10927.0kbits/s speed=0.253x    frame=  451 fps=6.9 q=27.0 size=   21843kB time=00:00:16.58 bitrate=10790.0kbits/s speed=0.252x    frame=  457 fps=6.9 q=27.0 size=   21843kB time=00:00:16.83 bitrate=10629.7kbits/s speed=0.253x    frame=  462 fps=6.9 q=27.0 size=   21843kB time=00:00:17.04 bitrate=10499.4kbits/s speed=0.255x    frame=  467 fps=6.9 q=27.0 size=   21843kB time=00:00:17.25 bitrate=10372.8kbits/s speed=0.256x    frame=  474 fps=6.9 q=27.0 size=   25797kB time=00:00:17.54 bitrate=12046.1kbits/s speed=0.257x    frame=  479 fps=7.0 q=27.0 size=   25797kB time=00:00:17.75 bitrate=11905.0kbits/s speed=0.258x    frame=  482 fps=6.9 q=27.0 size=   25797kB time=00:00:17.87 bitrate=11821.7kbits/s speed=0.257x    frame=  490 fps=7.0 q=27.0 size=   25797kB time=00:00:18.20 bitrate=11605.5kbits/s speed=0.259x    frame=  497 fps=7.0 q=27.0 size=   25797kB time=00:00:18.50 bitrate=11422.4kbits/s speed=0.261x    frame=  500 fps=6.6 q=-1.0 Lsize=   31908kB time=00:00:20.70 bitrate=12622.2kbits/s speed=0.273x    
video:31903kB audio:0kB subtitle:0kB other streams:0kB global headers:0kB muxing overhead: 0.015510%
bench: utime=247.360s
bench: maxrss=1578216kB
[libx264 @ 0x34961c0] frame I:8     Avg QP:21.68  size:217915
[libx264 @ 0x34961c0] frame P:269   Avg QP:26.96  size: 78304
[libx264 @ 0x34961c0] frame B:223   Avg QP:24.63  size: 44221
[libx264 @ 0x34961c0] consecutive B-frames: 37.0%  8.4%  6.6% 48.0%
[libx264 @ 0x34961c0] mb I  I16..4: 18.6% 74.1%  7.3%
[libx264 @ 0x34961c0] mb P  I16..4: 16.8% 24.7%  0.7%  P16..4: 30.0%  4.6%  1.5%  0.0%  0.0%    skip:21.7%
[libx264 @ 0x34961c0] mb B  I16..4:  1.4%  3.1%  0.3%  B16..8: 34.0%  3.4%  0.6%  direct: 1.9%  skip:55.2%  L0:43.6% L1:51.8% BI: 4.6%
[libx264 @ 0x34961c0] final ratefactor: 23.89
[libx264 @ 0x34961c0] 8x8 transform intra:59.8% inter:88.9%
[libx264 @ 0x34961c0] coded y,uvDC,uvAC intra: 23.8% 32.1% 4.3% inter: 10.9% 11.6% 0.2%
[libx264 @ 0x34961c0] i16 v,h,dc,p: 24% 30%  8% 39%
[libx264 @ 0x34961c0] i8 v,h,dc,ddl,ddr,vr,hd,vl,hu: 24% 20% 29%  5%  5%  4%  6%  4%  5%
[libx264 @ 0x34961c0] i4 v,h,dc,ddl,ddr,vr,hd,vl,hu: 22% 23% 10%  6% 10%  8% 11%  5%  5%
[libx264 @ 0x34961c0] i8c dc,h,v,p: 65% 17% 15%  3%
[libx264 @ 0x34961c0] Weighted P-Frames: Y:1.1% UV:0.7%
[libx264 @ 0x34961c0] ref P L0: 68.9% 18.8%  8.9%  3.4%  0.0%
[libx264 @ 0x34961c0] ref B L0: 92.3%  6.4%  1.4%
[libx264 @ 0x34961c0] ref B L1: 97.6%  2.4%
[libx264 @ 0x34961c0] kb/s:12544.69
